<svg xmlns="http://www.w3.org/2000/svg" width="94.399" height="29.962" viewBox="0 0 94.399 29.962">
    <defs>
        <style>
            .cls-1{fill:#114093}
        </style>
    </defs>
    <g id="같구로고-15" transform="translate(-9 -11.6)">
        <g id="그룹_13" transform="translate(9 11.699)">
            <path id="패스_32" d="M9 11.85h17.015l-2.381 13.492h-6l1.637-8.731H9zm25.7 14.98v4.117H15.945v1.339h18.8v3.869h-18.8V37.5h19.147v4.117H9.893V26.83zm3.919-5.9H34.7v4.613h-5.61V11.8h5.61v4.365h3.919z" class="cls-1" transform="translate(-9 -11.8)"/>
            <path id="패스_33" d="M87.914 41.514h-6.35v-9.325H70.8v-5.01h27.977v5.06H87.864v9.276zm6.746-16.32L96.446 11.9H72.983v4.812h16.766l-1.091 8.532h6z" class="cls-1" transform="translate(-40.144 -11.85)"/>
        </g>
        <g id="그룹_14" transform="translate(74.777 11.6)">
            <path id="패스_34" d="M142.2 12.15h8.284l-1.141 6.55h-2.927l.794-4.266h-5.01zm12.5 7.292v1.984h-9.127v.645h9.127v1.885h-9.127v.644h9.327v1.984h-12.254v-7.142zm1.935-2.877H154.7V18.8h-2.728v-6.7h2.728v2.133h1.935z" class="cls-1" transform="translate(-141.902 -11.852)"/>
            <path id="패스_35" d="M181.713 14.676c-.1 1.587-.2 3.026-.347 4.415s-.3 2.778-.5 4.068a3.285 3.285 0 0 1-.5 1.339 2.884 2.884 0 0 1-.893.843 4.238 4.238 0 0 1-1.191.446 5.657 5.657 0 0 1-1.29.1 8.21 8.21 0 0 1-1.587-.149 3.679 3.679 0 0 1-1.29-.5 2.884 2.884 0 0 1-.843-.893 2.433 2.433 0 0 1-.2-1.389c.1-1.339.248-2.679.347-4.018s.248-2.728.446-4.216a4.316 4.316 0 0 1 .5-1.538 3.318 3.318 0 0 1 2.183-1.439 6.275 6.275 0 0 1 1.389-.149 6.977 6.977 0 0 1 1.389.149 3.429 3.429 0 0 1 1.24.5 3.815 3.815 0 0 1 .893.893 3.347 3.347 0 0 1 .254 1.538zm-3.423 7.788c.05-.546.149-1.042.2-1.587.05-.5.149-1.042.2-1.587s.1-1.091.2-1.687c.05-.6.1-1.24.149-1.885a1.5 1.5 0 0 0-.3-1.24 1.088 1.088 0 0 0-.843-.347 1.373 1.373 0 0 0-.446.05 1.08 1.08 0 0 0-.4.248 1.2 1.2 0 0 0-.3.5 3.085 3.085 0 0 0-.2.794c-.1.645-.149 1.29-.248 1.835s-.1 1.141-.2 1.687c-.05.546-.1 1.091-.149 1.587l-.149 1.637a1.172 1.172 0 0 0 .1.645.524.524 0 0 0 .3.347.563.563 0 0 0 .4.149c.149 0 .3.05.4.05a1.233 1.233 0 0 0 .4-.05c.149 0 .248-.1.4-.149a2.158 2.158 0 0 0 .3-.347 1.98 1.98 0 0 0 .186-.65zm7.788 3.522h-2.728V11.848h2.728z" class="cls-1" transform="translate(-157.456 -11.6)"/>
            <path id="패스_36" d="M149.934 57.335h-3.076v-4.514H141.6V50.39h13.641v2.431h-5.308zm3.274-7.937l.843-6.5h-11.409v2.331h8.185l-.546 4.167z" class="cls-1" transform="translate(-141.6 -27.373)"/>
            <path id="패스_37" d="M177.7 56.889h-6.5V42.95h6.5zm-3.919-2.331h1.389v-9.327h-1.389zm7.441-6.25h.893V42.9h2.579v14.138h-2.579v-6.152h-.893v6.151h-2.579V42.9h2.579z" class="cls-1" transform="translate(-156.517 -27.373)"/>
        </g>
    </g>
</svg>
