<svg xmlns="http://www.w3.org/2000/svg" width="24" height="24" viewBox="0 0 24 24">
    <path d="M15 3a12 12 0 1 0 12 12A12.014 12.014 0 0 0 15 3zm0 1.846A10.154 10.154 0 1 1 4.846 15 10.166 10.166 0 0 1 15 4.846zM9.191 9.732l-1.305 1.305 1.655 1.655-1.655 1.655 1.305 1.305L10.846 14l1.654 1.653 1.305-1.305-1.655-1.655 1.655-1.655L12.5 9.732l-1.655 1.655zm8.308 0l-1.305 1.305 1.655 1.655-1.655 1.655 1.306 1.306L19.154 14l1.655 1.655 1.305-1.305-1.655-1.655 1.655-1.655-1.305-1.308-1.655 1.655zM15 16.846a3.453 3.453 0 0 0-3.692 3.139c0 1.592 1.242 2.4 3.692 2.4s3.692-.807 3.692-2.4A3.453 3.453 0 0 0 15 16.846zm0 1.846c1 0 1.846.592 1.846 1.293 0 .151 0 .553-1.846.553s-1.846-.4-1.846-.553c0-.701.846-1.293 1.846-1.293z" transform="translate(-3 -3)"/>
</svg>
